<?xml version="1.0" standalone="no"?>
<!DOCTYPE svg PUBLIC "-//W3C//DTD SVG 20010904//EN"
 "http://www.w3.org/TR/2001/REC-SVG-20010904/DTD/svg10.dtd">
<svg version="1.0" xmlns="http://www.w3.org/2000/svg"
 width="2921.000000pt" height="2105.000000pt" viewBox="0 0 2921.000000 2105.000000"
 preserveAspectRatio="xMidYMid meet">
<style>
g {
    fill: var(--bulma-body-color, black);
}
</style>

<g transform="translate(0.000000,2105.000000) scale(0.100000,-0.100000)"
 stroke="none">
<path d="M1145 20921 c-2 -5 -26 -11 -52 -14 -33 -3 -53 -12 -66 -29 -11 -12
-78 -84 -151 -158 -141 -145 -183 -203 -236 -320 -18 -41 -59 -127 -91 -190
-89 -179 -139 -314 -178 -485 -11 -49 -27 -119 -35 -155 -8 -36 -28 -121 -45
-190 -72 -295 -83 -353 -101 -505 -32 -268 -21 -499 28 -609 20 -45 24 -48 51
-43 21 4 34 1 46 -13 19 -21 55 -26 84 -11 12 7 31 5 57 -4 30 -11 109 -14
344 -15 168 0 368 -5 445 -10 145 -11 293 -35 310 -51 5 -5 19 -9 30 -9 39 0
162 -48 312 -121 150 -74 206 -112 285 -196 27 -29 81 -145 92 -199 3 -16 13
-87 21 -159 8 -71 29 -193 46 -270 16 -77 33 -156 36 -175 3 -19 23 -75 45
-125 34 -78 41 -105 48 -201 7 -87 17 -131 44 -205 39 -105 106 -261 156 -359
35 -69 234 -375 261 -400 9 -8 39 -47 68 -87 59 -81 246 -264 366 -357 101
-79 274 -189 390 -250 259 -134 601 -291 727 -332 75 -25 147 -54 161 -64 14
-11 30 -20 36 -20 6 0 11 -4 11 -10 0 -23 82 -51 225 -76 44 -7 100 -20 125
-29 79 -26 201 -47 330 -55 246 -18 359 -28 371 -35 6 -4 25 -11 43 -15 17 -5
76 -20 131 -35 141 -37 272 -65 310 -65 18 0 64 -10 101 -21 38 -12 92 -23
119 -25 28 -2 84 -8 125 -13 124 -17 1332 -22 1550 -6 102 7 295 16 430 20
135 3 306 10 380 15 74 5 176 12 225 15 50 3 153 13 230 21 77 8 228 19 335
24 233 10 687 52 760 70 19 5 94 18 165 28 72 11 155 30 185 42 30 12 64 23
75 25 38 6 111 24 225 56 63 17 151 39 195 49 44 9 91 22 105 27 14 6 50 18
80 28 66 22 144 60 185 90 17 13 94 48 172 77 121 47 160 68 272 147 141 98
140 98 240 182 36 31 71 58 77 60 7 2 29 18 50 36 22 18 73 60 114 94 41 34
79 68 83 76 4 7 20 25 34 41 90 95 138 165 240 347 84 151 145 312 173 460 6
33 23 101 36 150 26 91 80 310 116 465 10 47 23 135 28 195 25 328 30 379 37
386 10 8 431 -18 658 -41 50 -5 149 -14 220 -20 179 -14 353 -39 755 -105 52
-9 147 -24 211 -34 64 -11 125 -21 135 -25 11 -3 35 -8 54 -11 19 -3 61 -10
92 -15 32 -6 63 -9 69 -8 19 5 30 -50 36 -187 3 -71 10 -141 16 -155 5 -14 9
-50 8 -82 -2 -31 2 -83 8 -115 5 -32 15 -94 22 -138 7 -44 15 -84 19 -90 4 -5
11 -30 14 -55 4 -25 11 -67 16 -95 4 -27 13 -86 18 -130 6 -45 20 -116 31
-160 12 -43 21 -98 21 -122 0 -23 12 -77 26 -120 33 -101 54 -179 54 -204 0
-11 11 -41 24 -67 13 -26 33 -78 46 -117 68 -208 219 -408 390 -517 87 -55
320 -158 435 -191 28 -8 91 -33 140 -56 50 -24 162 -72 250 -107 88 -36 198
-83 245 -104 50 -23 149 -54 240 -75 85 -21 196 -50 245 -65 50 -16 113 -31
140 -35 28 -4 77 -14 110 -21 33 -7 141 -31 240 -53 99 -23 214 -51 255 -65
41 -13 107 -29 145 -36 39 -7 80 -16 93 -21 13 -5 40 -9 60 -9 21 0 42 -4 47
-8 6 -5 37 -14 70 -21 33 -7 89 -21 125 -31 36 -10 90 -23 120 -30 30 -7 95
-25 145 -41 49 -16 101 -29 116 -29 15 0 81 -18 146 -39 65 -22 159 -47 208
-56 50 -8 140 -31 200 -50 123 -37 195 -55 226 -55 12 0 67 -14 122 -30 56
-17 123 -37 148 -45 26 -7 87 -21 135 -30 49 -9 127 -25 174 -35 47 -11 121
-26 165 -34 76 -14 174 -37 240 -56 17 -5 55 -16 85 -25 30 -9 98 -20 151 -25
54 -6 144 -24 200 -41 111 -34 183 -50 319 -74 105 -18 180 -36 290 -69 49
-15 145 -32 226 -41 82 -9 174 -25 218 -39 42 -14 102 -27 134 -31 153 -16
340 -49 417 -72 38 -11 118 -16 335 -18 157 -2 296 -8 310 -13 14 -5 43 -7 65
-5 23 3 78 -5 125 -17 65 -17 99 -20 145 -15 118 12 224 35 331 69 60 19 129
37 154 41 56 8 237 84 333 140 381 221 517 321 597 435 22 33 70 86 310 343
52 56 109 110 126 119 22 12 41 37 62 80 16 35 45 83 65 108 109 136 156 201
183 250 72 129 106 184 158 254 31 40 62 79 70 85 15 12 121 216 146 281 8 19
26 50 42 69 19 24 24 38 18 47 -11 12 15 42 26 31 4 -3 13 1 21 9 14 14 19 35
27 109 2 17 4 36 4 43 1 7 7 10 14 6 7 -4 8 -3 4 4 -4 7 4 35 18 63 15 28 26
61 26 75 0 19 20 39 93 91 145 106 225 158 352 226 44 24 293 142 343 163 24
10 67 33 95 51 29 19 80 42 114 53 34 10 83 30 110 43 26 13 95 39 153 57 108
34 205 81 320 155 66 43 102 82 133 142 9 17 33 41 54 54 21 13 31 25 24 27
-7 2 -17 -2 -22 -9 -4 -7 -11 -10 -16 -6 -4 4 -2 16 5 25 32 45 47 102 26 102
-8 0 -14 -6 -14 -14 0 -8 -5 -18 -11 -21 -11 -8 -5 50 11 95 8 21 17 119 19
198 1 13 7 22 16 22 8 0 15 5 15 11 0 5 -5 7 -11 3 -12 -7 -8 63 4 83 7 10 34
123 41 169 2 12 18 64 34 115 32 98 52 262 52 427 0 42 5 105 10 140 7 41 7
75 1 98 -8 28 -6 43 9 77 11 23 20 61 20 84 0 36 -5 46 -35 69 -25 19 -34 32
-30 45 8 23 -73 62 -260 124 -77 26 -147 49 -155 52 -8 3 -22 7 -30 8 -8 1
-62 14 -120 29 -58 16 -145 37 -195 48 -49 11 -108 23 -130 28 -22 5 -80 18
-130 29 -121 28 -460 88 -565 100 -201 25 -363 40 -470 46 -63 3 -146 10 -185
16 -38 5 -128 11 -200 14 -71 2 -173 10 -225 18 -52 9 -140 22 -195 30 -55 8
-112 20 -126 25 -15 6 -91 18 -170 27 -79 9 -193 27 -254 40 -60 13 -150 29
-198 36 -48 7 -90 16 -93 21 -3 4 -18 8 -34 8 -16 0 -59 6 -97 14 -37 8 -106
17 -153 20 -46 4 -109 13 -140 20 -30 8 -95 20 -145 26 -49 6 -121 18 -160 26
-38 8 -124 19 -191 25 -66 5 -147 18 -180 28 -61 20 -132 32 -289 51 -49 6
-115 17 -145 25 -89 22 -178 34 -290 41 -58 4 -115 10 -128 15 -13 5 -37 9
-53 9 -17 0 -39 5 -49 10 -10 6 -79 15 -152 21 -73 5 -189 19 -258 31 -69 11
-161 20 -204 20 -44 -1 -131 8 -195 19 -64 12 -138 26 -166 31 -27 4 -115 15
-195 23 -80 8 -165 19 -190 24 -25 5 -76 17 -115 26 -38 9 -119 23 -180 31
-60 8 -146 23 -190 34 -114 28 -245 48 -357 54 -53 3 -102 8 -110 11 -42 16
-260 47 -358 51 -63 3 -124 7 -135 10 -11 3 -58 9 -105 14 -47 5 -119 13 -160
19 -41 5 -100 12 -130 15 -206 20 -250 25 -266 34 -11 5 -66 15 -124 22 -57 6
-109 15 -115 18 -5 4 -89 9 -185 13 -96 4 -204 11 -240 17 -36 6 -126 16 -200
23 -74 6 -164 18 -200 26 -79 18 -157 30 -230 38 -132 14 -155 17 -177 26 -13
5 -80 13 -148 18 -69 5 -128 12 -132 14 -10 6 -235 18 -425 22 -157 4 -378
-11 -393 -26 -5 -5 -17 -9 -27 -9 -9 0 -32 -6 -50 -14 -18 -8 -94 -29 -168
-46 -74 -18 -157 -44 -185 -58 -55 -30 -222 -186 -265 -248 -16 -22 -56 -74
-91 -115 -56 -67 -108 -161 -144 -259 -7 -19 -24 -60 -39 -91 -14 -31 -36 -85
-49 -120 -14 -35 -43 -113 -66 -174 -23 -60 -57 -146 -75 -190 -18 -44 -41
-104 -51 -134 l-17 -53 -57 6 c-31 3 -108 10 -171 16 -155 13 -237 25 -350 48
-52 11 -167 30 -255 41 -88 11 -185 27 -215 35 -84 22 -361 53 -720 81 -107 8
-262 22 -345 30 -82 8 -184 17 -224 19 l-75 4 -17 54 c-9 29 -24 80 -32 113
-36 140 -159 455 -223 571 -56 102 -229 251 -379 327 -82 41 -291 112 -384
131 -36 8 -124 19 -196 25 -71 7 -155 16 -185 21 -30 6 -69 12 -87 14 -17 2
-36 7 -41 10 -5 3 -83 10 -173 16 -90 5 -213 14 -274 20 -60 6 -148 12 -195
14 -47 2 -168 16 -270 30 -102 15 -230 29 -285 32 -55 2 -134 9 -175 14 -41 5
-185 12 -320 15 -214 5 -388 15 -498 29 -18 2 -70 9 -115 15 -45 5 -140 13
-212 16 -71 4 -146 8 -165 10 -19 2 -73 6 -120 10 -47 3 -110 10 -140 15 -110
18 -283 31 -608 45 -118 5 -236 12 -337 21 -106 8 -556 64 -565 69 -4 2 -47 5
-96 6 -49 1 -93 5 -99 9 -5 4 -48 10 -95 14 -220 17 -377 27 -510 32 -80 2
-158 9 -175 14 -16 4 -64 11 -105 15 -41 3 -126 12 -188 20 -62 8 -149 15
-193 15 -75 0 -145 8 -399 46 -58 9 -154 18 -214 20 -60 3 -116 9 -125 13 -9
5 -68 12 -131 15 -78 4 -107 2 -90 -4 18 -7 7 -8 -40 -4 -67 6 -115 11 -115
14 0 0 -23 3 -52 5 -29 2 -61 9 -72 14 -14 8 -21 8 -25 -2 -3 -8 -9 -6 -20 7
-13 16 -21 18 -48 10 -18 -5 -44 -8 -58 -6 -23 4 -24 5 -5 13 13 5 -10 8 -62
8 -45 1 -88 4 -97 7 -9 3 -16 1 -16 -4 0 -6 6 -12 13 -15 6 -2 3 -3 -8 -1 -11
2 -54 4 -95 5 -51 1 -66 3 -45 8 l30 7 -26 7 c-49 13 -249 21 -249 10 0 -8
-12 -8 -37 -1 -21 6 -69 14 -108 19 -38 4 -108 13 -155 19 -47 7 -110 13 -140
14 -30 2 -59 4 -65 6 -5 2 -37 1 -69 -3 -39 -5 -62 -4 -66 3 -10 16 -43 20
-180 23 -69 2 -131 6 -138 11 -50 31 -149 38 -732 51 -173 4 -378 14 -440 21
-25 3 -160 8 -300 10 -260 4 -459 11 -517 18 -18 3 -35 1 -38 -3z m1342 -67
c-3 -3 -12 -4 -19 -1 -8 3 -5 6 6 6 11 1 17 -2 13 -5z m2333 -2036 c132 -1
829 -18 890 -23 118 -8 426 -17 725 -21 182 -2 346 -6 365 -9 19 -3 103 -11
185 -16 204 -15 213 -15 270 -23 54 -7 67 -8 340 -25 99 -7 227 -16 285 -21
58 -6 146 -10 195 -11 94 0 167 -7 375 -32 69 -9 193 -21 275 -27 83 -6 200
-17 260 -25 61 -7 196 -19 300 -25 105 -6 235 -18 290 -26 152 -23 225 -32
410 -50 94 -9 175 -19 180 -22 6 -4 71 -10 145 -14 267 -14 436 -27 489 -37
29 -6 57 -9 61 -6 7 4 48 1 245 -20 159 -18 374 -60 392 -78 26 -27 13 -527
-18 -652 -5 -22 -14 -70 -19 -107 -12 -87 -97 -260 -203 -411 -88 -127 -142
-194 -219 -272 -49 -50 -97 -104 -107 -120 -10 -17 -45 -55 -77 -86 -33 -30
-83 -79 -113 -107 -30 -29 -57 -52 -60 -52 -3 0 -26 -18 -50 -40 -25 -22 -65
-52 -90 -67 -53 -30 -123 -84 -285 -217 -39 -32 -96 -75 -126 -95 -30 -20 -57
-39 -60 -43 -5 -7 -114 -47 -315 -118 -90 -31 -188 -51 -271 -55 -6 0 -18 -6
-27 -13 -8 -7 -39 -17 -68 -22 -30 -4 -75 -13 -101 -19 -25 -6 -88 -11 -140
-11 -139 -1 -178 -5 -186 -15 -7 -10 -48 -15 -110 -15 -19 0 -35 -6 -38 -14
-4 -10 -19 -14 -47 -13 -89 3 -362 -14 -368 -24 -11 -18 -227 -12 -974 26
-255 13 -295 17 -288 28 4 7 -9 8 -43 2 -77 -12 -156 -7 -569 35 -55 6 -116
12 -135 14 -160 16 -240 31 -297 57 -24 10 -58 19 -76 19 -18 0 -58 4 -88 9
-30 6 -95 12 -146 14 -51 3 -111 12 -135 20 -103 38 -206 65 -229 60 -13 -2
-55 7 -94 20 -38 13 -104 34 -145 46 -41 12 -113 37 -160 56 -47 19 -94 36
-105 39 -41 12 -173 73 -270 126 -122 66 -197 102 -284 137 -107 42 -463 223
-504 257 -87 70 -176 341 -197 601 -9 115 -27 229 -41 265 -9 25 -17 77 -45
290 -8 63 -17 219 -20 345 -6 191 -4 240 9 291 9 34 21 101 28 150 6 49 20
112 30 140 16 43 23 51 42 47 12 -2 67 1 122 5 55 5 287 7 515 4 228 -2 462
-4 520 -4z m12622 -437 c5 -13 343 -31 572 -31 110 0 261 -4 335 -10 75 -5
192 -12 261 -14 215 -9 433 -25 485 -35 28 -5 79 -17 115 -25 36 -8 101 -17
145 -20 44 -3 134 -13 200 -21 171 -21 201 -23 380 -35 88 -6 194 -14 235 -20
41 -5 161 -14 265 -20 193 -11 327 -22 469 -41 43 -6 137 -14 210 -19 72 -5
185 -16 251 -24 66 -8 163 -20 215 -26 230 -26 357 -43 378 -51 13 -5 62 -9
109 -9 86 0 157 -9 288 -36 75 -15 88 -17 209 -33 43 -6 102 -18 131 -26 29
-9 57 -15 61 -14 5 1 16 0 24 -4 36 -13 111 -26 185 -32 110 -9 341 -42 450
-65 148 -31 303 -59 420 -75 182 -26 303 -54 402 -91 34 -13 68 -24 76 -24 8
0 35 -11 58 -25 24 -14 72 -34 106 -45 34 -10 84 -30 112 -45 38 -19 77 -28
151 -35 55 -5 110 -15 121 -21 24 -12 104 -36 172 -50 26 -5 78 -24 115 -41
37 -16 119 -43 182 -59 63 -16 160 -46 215 -68 55 -21 145 -53 200 -70 55 -17
108 -37 117 -45 19 -14 17 -35 -17 -191 -9 -38 -22 -113 -31 -165 -8 -52 -19
-120 -25 -150 -6 -30 -15 -86 -20 -125 -5 -38 -16 -116 -24 -172 -8 -56 -15
-119 -15 -141 0 -21 -9 -65 -19 -98 -11 -32 -22 -79 -26 -104 -10 -69 -54
-258 -76 -325 -73 -222 -96 -281 -151 -384 -34 -64 -73 -138 -86 -166 -14 -27
-31 -58 -40 -68 -8 -9 -12 -20 -9 -24 4 -3 7 -1 7 5 0 7 5 12 10 12 17 0 11
-18 -7 -25 -28 -9 -146 -122 -135 -129 5 -3 -24 -39 -64 -81 -40 -41 -70 -75
-67 -75 5 0 -72 -84 -118 -130 -38 -37 -222 -140 -277 -154 -56 -15 -109 -41
-139 -68 -26 -24 -153 -48 -259 -48 -40 0 -105 -6 -145 -14 -83 -16 -237 -33
-381 -41 -71 -5 -108 -2 -145 9 -26 8 -61 17 -78 20 -16 2 -37 7 -45 10 -23 8
-182 19 -305 20 -60 1 -115 5 -122 9 -7 4 -49 10 -95 13 -46 3 -108 13 -138
23 -30 10 -72 23 -92 30 -20 6 -79 16 -130 20 -64 6 -112 16 -155 35 -39 16
-81 26 -111 26 -48 0 -201 28 -297 55 -27 8 -84 15 -125 17 -41 2 -77 6 -80
10 -3 4 -44 10 -90 13 -47 4 -105 14 -130 23 -29 11 -74 17 -125 16 -44 0 -82
3 -85 7 -6 8 -37 13 -185 29 -49 6 -121 17 -160 24 -60 12 -115 19 -328 41
-20 2 -42 7 -47 10 -17 10 -112 26 -153 25 -36 -1 -79 9 -137 32 -48 20 -146
39 -205 41 -33 1 -62 4 -65 7 -12 13 -150 61 -215 75 -105 23 -169 42 -203 59
-17 9 -44 16 -61 16 -41 0 -61 9 -61 28 0 12 -3 13 -12 4 -14 -14 -64 -16 -72
-3 -3 5 -14 7 -24 4 -10 -2 -26 5 -36 16 -11 12 -31 21 -46 21 -29 0 -120 28
-134 41 -6 5 -25 9 -43 9 -18 0 -50 9 -70 20 -21 11 -45 20 -53 20 -9 0 -24 6
-35 14 -11 7 -44 19 -72 26 -29 6 -53 15 -53 19 0 4 -14 6 -30 3 -19 -3 -38 2
-48 11 -21 18 -91 42 -114 38 -10 -1 -18 3 -18 8 0 6 -12 11 -28 11 -15 0 -39
11 -55 26 -23 21 -31 23 -42 14 -9 -8 -15 -8 -15 -2 0 12 -56 33 -64 25 -3 -4
-6 -1 -6 5 0 22 -64 43 -106 35 -56 -12 -80 -6 -108 28 -23 27 -44 40 -31 19
3 -5 0 -10 -7 -9 -22 1 -49 14 -51 24 -1 6 -8 9 -14 9 -7 -1 -10 3 -6 9 4 6
-4 7 -22 3 -23 -6 -32 -2 -50 20 -17 22 -30 27 -73 29 -31 2 -60 9 -71 19 -10
9 -24 16 -32 16 -17 1 -91 45 -90 54 2 19 -2 23 -35 35 -29 10 -38 11 -44 1
-5 -8 -10 -9 -14 -1 -4 6 -28 20 -54 31 -26 12 -67 38 -92 59 -25 21 -55 43
-68 50 -12 6 -34 35 -48 64 -15 29 -39 71 -55 94 -36 52 -154 270 -164 303 -4
14 -21 52 -36 86 -16 33 -31 76 -35 95 -3 19 -15 57 -26 84 -23 55 -37 111
-42 166 -2 20 -6 54 -10 75 -21 144 -36 251 -46 329 -6 50 -17 135 -25 190
-24 162 -28 352 -10 505 21 180 52 343 77 405 11 27 26 70 33 95 10 39 15 45
38 45 15 -1 27 4 27 10 0 11 55 75 65 75 6 0 28 17 48 37 14 14 104 17 109 4z
m9528 -3041 c0 -5 -4 -10 -10 -10 -5 0 -10 5 -10 10 0 6 5 10 10 10 6 0 10 -4
10 -10z m-24 -47 c-10 -10 -19 5 -10 18 6 11 8 11 12 0 2 -7 1 -15 -2 -18z
m-8316 -53 c8 -5 11 -10 5 -10 -5 0 -17 5 -25 10 -8 5 -10 10 -5 10 6 0 17 -5
25 -10z"/>
<path d="M8912 17899 c-70 -8 -77 -11 -130 -60 -32 -28 -67 -70 -79 -93 -34
-63 -53 -177 -53 -312 0 -100 4 -134 25 -205 14 -46 32 -108 40 -137 17 -59
38 -99 128 -242 88 -140 142 -183 242 -195 46 -6 59 -3 121 28 93 48 150 104
190 193 l34 73 0 168 c0 170 -8 221 -53 364 -36 111 -109 219 -224 330 -55 54
-90 80 -118 88 -22 6 -42 10 -45 10 -3 -1 -38 -5 -78 -10z"/>
<path d="M22335 17160 c-63 -6 -127 -29 -158 -58 -10 -9 -34 -45 -54 -79 -19
-35 -40 -63 -46 -63 -5 0 -8 -2 -5 -6 3 -3 -3 -27 -13 -55 -23 -60 -25 -196
-5 -309 28 -156 163 -488 235 -580 68 -85 81 -93 195 -110 70 -10 82 -10 138
10 83 29 93 34 117 72 11 18 28 43 36 55 9 12 18 28 19 35 8 37 20 74 27 84
19 24 29 202 21 355 l-10 155 -46 100 c-25 56 -46 111 -46 123 0 15 -33 55
-97 120 -81 81 -108 102 -158 120 -33 12 -67 26 -75 29 -8 4 -42 5 -75 2z"/>
<path d="M19458 14993 c7 -3 16 -2 19 1 4 3 -2 6 -13 5 -11 0 -14 -3 -6 -6z"/>
<path d="M28320 18590 c0 -5 5 -10 10 -10 6 0 10 5 10 10 0 6 -4 10 -10 10 -5
0 -10 -4 -10 -10z"/>
<path d="M28866 16995 c4 -8 8 -15 10 -15 2 0 4 7 4 15 0 8 -4 15 -10 15 -5 0
-7 -7 -4 -15z"/>
<path d="M28850 16934 c0 -8 5 -12 10 -9 6 4 8 11 5 16 -9 14 -15 11 -15 -7z"/>
<path d="M28870 16910 c0 -5 5 -10 10 -10 6 0 10 5 10 10 0 6 -4 10 -10 10 -5
0 -10 -4 -10 -10z"/>
<path d="M28840 16820 c0 -5 6 -10 14 -10 8 0 18 5 21 10 3 6 -3 10 -14 10
-12 0 -21 -4 -21 -10z"/>
<path d="M13220 10387 c-3 -4 -98 -11 -210 -17 -113 -6 -234 -15 -270 -20 -36
-6 -101 -13 -145 -15 -44 -3 -156 -15 -250 -26 -267 -31 -339 -38 -510 -48
-88 -6 -176 -15 -195 -21 -19 -5 -52 -10 -73 -10 -44 0 -112 -42 -121 -75 -12
-41 -5 -78 21 -122 28 -48 30 -49 223 -132 109 -47 131 -59 245 -131 88 -55
126 -88 250 -220 228 -241 232 -245 250 -280 62 -120 219 -298 351 -398 44
-34 85 -62 91 -62 6 0 66 -36 133 -80 76 -50 147 -88 186 -100 35 -10 76 -25
91 -33 15 -8 60 -17 98 -21 39 -4 86 -11 105 -16 19 -5 137 -14 263 -19 185
-7 237 -7 280 5 28 7 73 14 98 14 26 0 82 6 125 14 44 8 120 20 169 26 86 11
216 39 280 62 17 5 71 14 120 18 61 5 101 14 125 28 23 13 63 22 115 26 113
10 295 58 395 105 95 44 166 71 192 71 29 0 120 52 125 71 5 19 33 27 33 9 0
-18 29 -10 40 11 7 12 18 18 26 15 8 -3 14 -1 14 4 0 6 5 10 12 10 16 0 147
100 199 153 108 109 131 138 126 162 -3 18 1 25 16 27 20 3 57 82 49 106 -2 7
1 12 7 12 6 0 9 22 7 55 -2 30 -1 57 2 60 11 11 10 39 -4 138 -9 55 -24 118
-35 138 -10 21 -19 45 -19 54 0 21 -108 126 -150 147 -38 18 -201 66 -410 122
-155 41 -349 76 -423 76 -29 0 -102 9 -164 19 -61 11 -185 25 -275 31 -90 6
-221 15 -293 21 -251 20 -1303 49 -1315 36z"/>
<path d="M11055 3635 c-95 -19 -126 -31 -225 -87 -63 -36 -142 -80 -175 -98
-140 -78 -243 -161 -475 -385 -80 -77 -168 -161 -195 -186 -76 -70 -136 -137
-175 -195 -19 -29 -56 -83 -81 -120 -77 -115 -165 -256 -192 -310 -14 -28 -37
-64 -50 -80 -13 -16 -36 -54 -51 -84 -16 -30 -34 -62 -42 -71 -8 -8 -14 -19
-14 -22 0 -4 -22 -46 -49 -95 -50 -86 -141 -302 -186 -437 -13 -38 -31 -90
-40 -115 -10 -25 -21 -58 -26 -75 -4 -16 -17 -61 -28 -100 -49 -167 -59 -210
-54 -218 2 -4 0 -13 -5 -20 -5 -7 -12 -43 -16 -82 -3 -38 -15 -126 -26 -195
-30 -189 -25 -270 16 -270 8 0 17 -7 21 -16 3 -8 12 -13 19 -10 8 3 14 1 14
-3 0 -15 69 -53 81 -45 6 3 15 0 20 -7 7 -11 20 -8 66 19 104 58 477 236 548
260 67 23 144 42 215 53 41 6 100 16 130 20 30 5 96 13 145 19 50 6 110 17
135 24 25 8 72 17 105 21 33 3 83 10 110 15 86 15 1113 29 1135 15 6 -4 63 -8
127 -11 79 -3 122 -9 132 -18 26 -23 120 -37 226 -35 104 1 212 0 304 -6 50
-3 57 0 94 34 l40 36 -6 120 c-3 66 -11 134 -17 150 -17 45 -78 136 -115 171
-17 16 -37 39 -43 50 -6 10 -12 13 -12 7 0 -7 -4 -13 -10 -13 -5 0 -10 16 -10
35 0 19 -5 35 -11 35 -6 0 -36 22 -67 48 -90 76 -170 122 -388 220 -122 56
-200 84 -287 103 -55 12 -57 14 -68 53 -17 64 -5 179 31 291 93 287 95 292
247 490 95 124 235 250 358 320 28 16 83 51 124 77 40 26 84 48 97 48 13 0 39
7 58 16 40 20 51 53 32 99 -17 40 -126 192 -164 228 -63 61 -516 277 -580 277
-13 0 -41 4 -61 10 -20 5 -106 23 -191 39 -200 38 -337 40 -495 6z m1105
-2920 c10 -12 10 -15 -4 -15 -9 0 -16 4 -16 9 0 5 -8 12 -17 14 -14 4 -14 5 3
6 12 0 27 -6 34 -14z m127 -11 c-3 -3 -12 -4 -19 -1 -8 3 -5 6 6 6 11 1 17 -2
13 -5z"/>
</g>
</svg>
