<?xml version="1.0" encoding="UTF-8" standalone="yes"?>
<!DOCTYPE svg PUBLIC "-//W3C//DTD SVG 1.1//EN" "http://www.w3.org/Graphics/SVG/1.1/DTD/svg11.dtd">
<svg xmlns="http://www.w3.org/2000/svg" xmlns:xlink="http://www.w3.org/1999/xlink" cursor="crosshair" style="shape-rendering:geometricPrecision; text-rendering:geometricPrecision; image-rendering:optimizeQuality; fill-rule:evenodd; clip-rule:evenodd;zoom: 1;" height="104px" width="125px" version="1.1"><g><path style="opacity:1" fill="#4e4e4e" d="M 40.5,19.5 C 37.4284,19.1875 34.595,19.8542 32,21.5C 28.6105,20.2676 28.7771,19.4342 32.5,19C 27.5063,17.7741 23.0063,18.6074 19,21.5C 17.9889,20.9444 17.1556,20.2778 16.5,19.5C 16.4148,18.0047 17.0815,17.0047 18.5,16.5C 26.0057,17.1236 33.3391,18.1236 40.5,19.5 Z"></path></g><g><path d="M40.5,19.5 C44.8461,19.334299 49.179401,19.500999 53.5,20 C55.843102,22.544399 58.5098,24.377701 61.5,25.5 C62.3764,25.369101 63.043098,25.702499 63.5,26.5 C62.674999,27.3857 61.674999,27.719 60.5,27.5 C60.061699,29.638201 59.8951,31.9715 60,34.5 C59.291698,35.380501 58.458401,36.047199 57.5,36.5 C57.6567,35.126598 57.490002,33.793201 57,32.5 C55.470798,33.728699 54.3041,35.228699 53.5,37 C51.941898,37.209999 50.608501,37.709999 49.5,38.5 C49.166698,38.5 48.833302,38.5 48.5,38.5 C45.7201,37.770699 42.886799,37.104 40,36.5 C37.152302,36.797798 34.318901,37.131199 31.5,37.5 C31.1667,37.5 30.8333,37.5 30.5,37.5 C28.707701,35.430698 26.374399,34.097401 23.5,33.5 C22.538601,31.735399 22.205299,29.735399 22.5,27.5 C22.5,26.5 22.5,25.5 22.5,24.5 C20.900999,24.232201 19.5676,24.5655 18.5,25.5 C17.5,25.5 16.5,25.5 15.5,25.5 C15.2053,23.264601 15.5386,21.264601 16.5,19.5 C17.1556,20.2778 17.988899,20.944401 19,21.5 C23.0063,18.607401 27.5063,17.774099 32.5,19 C28.7771,19.4342 28.6105,20.267599 32,21.5 C34.595001,19.8542 37.428398,19.1875 40.5,19.5 " style="opacity:1" fill="#191919"></path></g><g><path style="opacity:1" fill="#474747" d="M 35.5,23.5 C 35.5,23.1667 35.5,22.8333 35.5,22.5C 39.1817,22.3347 42.8484,22.5014 46.5,23C 47.5707,23.8518 48.5707,24.6851 49.5,25.5C 44.8169,24.9262 40.1502,24.2596 35.5,23.5 Z"></path></g><g><path style="opacity:1" fill="#181818" d="M 91.5,23.5 C 96.353,23.8127 101.02,24.4794 105.5,25.5C 106.568,26.4345 107.901,26.7678 109.5,26.5C 110.16,31.1818 111.493,31.5151 113.5,27.5C 114.139,28.0968 114.472,28.9302 114.5,30C 114.316,31.3756 113.649,32.2089 112.5,32.5C 110.263,33.449 107.929,34.1156 105.5,34.5C 105.5,36.1667 105.5,37.8333 105.5,39.5C 101.22,44.4779 95.887,45.8113 89.5,43.5C 88.7375,42.7321 87.7375,42.2321 86.5,42C 90.6877,41.8238 94.6877,41.3238 98.5,40.5C 101.766,39.4632 103.433,37.1299 103.5,33.5C 103.457,32.5836 103.124,31.9169 102.5,31.5C 102.5,30.5 102.5,29.5 102.5,28.5C 101.167,28.5 99.8333,28.5 98.5,28.5C 91.3234,27.0705 83.9901,26.0705 76.5,25.5C 76.0825,24.7784 75.4158,24.2784 74.5,24C 80.0972,22.5765 85.7639,22.4098 91.5,23.5 Z"></path></g><g><path style="opacity:1" fill="#464646" d="M 91.5,23.5 C 85.7639,22.4098 80.0972,22.5765 74.5,24C 75.4158,24.2784 76.0825,24.7784 76.5,25.5C 75.5,25.5 74.5,25.5 73.5,25.5C 73.6309,24.6236 73.2975,23.9569 72.5,23.5C 71.4822,24.1925 70.4822,24.8592 69.5,25.5C 70.6486,21.9972 73.1486,20.3305 77,20.5C 82.0632,21.0331 86.8965,22.0331 91.5,23.5 Z"></path></g><g><path d="M35.5,23.5 C40.1502,24.2596 44.8169,24.9262 49.5,25.5 C51.1667,25.5 52.8333,25.5 54.5,25.5 C54.5,26.5 54.5,27.5 54.5,28.5 C52.3264,32.5156 48.993,34.5156 44.5,34.5 C38.8591,35.0914 33.5258,34.2581 28.5,32 C27.1772,31.1841 26.5106,30.0174 26.5,28.5 C26.5,26.8333 26.5,25.1667 26.5,23.5 C29.5,23.5 32.5,23.5 35.5,23.5 " style="opacity:1" fill="#f2f2f2"></path></g><g><path style="opacity:1" fill="#7c7c7c" d="M 18.5,25.5 C 19.5676,24.5655 20.901,24.2322 22.5,24.5C 22.5,25.5 22.5,26.5 22.5,27.5C 21.5326,26.1938 20.1993,25.5271 18.5,25.5 Z"></path></g><g><path style="opacity:1" fill="#9b9b9b" d="M 35.5,22.5 C 35.5,22.8333 35.5,23.1667 35.5,23.5C 32.5,23.5 29.5,23.5 26.5,23.5C 26.5,25.1667 26.5,26.8333 26.5,28.5C 25.5386,26.7354 25.2053,24.7354 25.5,22.5C 28.8333,22.5 32.1667,22.5 35.5,22.5 Z"></path></g><g><path style="opacity:1" fill="#171717" d="M 73.5,25.5 C 72.0138,28.9552 72.3472,32.2885 74.5,35.5C 73.4479,37.256 71.7812,37.9227 69.5,37.5C 68.9931,35.1825 68.6598,32.5158 68.5,29.5C 67.7375,28.7321 66.7375,28.2321 65.5,28C 66.0779,26.583 67.0779,25.7496 68.5,25.5C 68.8333,25.5 69.1667,25.5 69.5,25.5C 70.4822,24.8592 71.4822,24.1925 72.5,23.5C 73.2975,23.9569 73.6309,24.6236 73.5,25.5 Z"></path></g><g><path style="opacity:1" fill="#6e6e6e" d="M 61.5,25.5 C 63.8333,24.1667 66.1667,24.1667 68.5,25.5C 67.0779,25.7496 66.0779,26.583 65.5,28C 66.7375,28.2321 67.7375,28.7321 68.5,29.5C 65.5718,29.4349 62.9052,28.7682 60.5,27.5C 61.675,27.719 62.675,27.3857 63.5,26.5C 63.0431,25.7025 62.3764,25.3691 61.5,25.5 Z"></path></g><g></g><g><path style="opacity:1" fill="#4e4e4e" d="M 105.5,25.5 C 107.857,25.3367 110.19,25.5034 112.5,26C 113.056,26.3826 113.389,26.8826 113.5,27.5C 111.493,31.5151 110.16,31.1818 109.5,26.5C 107.901,26.7678 106.568,26.4345 105.5,25.5 Z"></path></g><g><path style="opacity:1" fill="#585858" d="M 44.5,27.5 C 46.3442,28.2039 46.8442,29.5372 46,31.5C 44.8118,30.4366 44.3118,29.1033 44.5,27.5 Z"></path></g><g><path style="opacity:1" fill="#616161" d="M 98.5,28.5 C 99.8333,28.5 101.167,28.5 102.5,28.5C 102.5,29.5 102.5,30.5 102.5,31.5C 101.128,30.4884 99.795,29.4884 98.5,28.5 Z"></path></g><g><path style="opacity:1" fill="#2a2a2a" d="M 90.5,30.5 C 92.4646,30.9483 92.7979,31.9483 91.5,33.5C 90.6143,32.675 90.281,31.675 90.5,30.5 Z"></path></g><g><path style="opacity:1" fill="#464646" d="M 54.5,28.5 C 54.3337,36.0182 51.0003,38.0182 44.5,34.5C 48.993,34.5156 52.3264,32.5156 54.5,28.5 Z"></path></g><g><path style="opacity:1" fill="#565656" d="M 23.5,33.5 C 26.3744,34.0974 28.7077,35.4307 30.5,37.5C 27.4542,37.2753 25.1209,35.942 23.5,33.5 Z"></path></g><g><path style="opacity:1" fill="#545454" d="M 112.5,32.5 C 111.257,34.1639 109.59,35.3305 107.5,36C 106.915,37.3024 106.249,38.469 105.5,39.5C 105.5,37.8333 105.5,36.1667 105.5,34.5C 107.929,34.1156 110.263,33.449 112.5,32.5 Z"></path></g><g><path style="opacity:1" fill="#4c4c4c" d="M 57.5,36.5 C 55.22,38.2227 52.5533,38.8893 49.5,38.5C 50.6085,37.71 51.9419,37.21 53.5,37C 54.3041,35.2287 55.4708,33.7287 57,32.5C 57.49,33.7932 57.6567,35.1266 57.5,36.5 Z"></path></g><g><path style="opacity:1" fill="#393939" d="M 74.5,35.5 C 81.9461,39.3579 89.9461,41.0245 98.5,40.5C 94.6877,41.3238 90.6877,41.8238 86.5,42C 87.7375,42.2321 88.7375,42.7321 89.5,43.5C 89.5654,43.9382 89.3988,44.2716 89,44.5C 82.4296,42.0347 75.9296,39.7014 69.5,37.5C 71.7812,37.9227 73.4479,37.256 74.5,35.5 Z"></path></g><g><path style="opacity:1" fill="#3a3a3a" d="M 48.5,38.5 C 46.5274,39.1627 44.3608,39.4961 42,39.5C 38.2178,39.6209 34.7178,38.9542 31.5,37.5C 34.3189,37.1312 37.1523,36.7978 40,36.5C 42.8868,37.104 45.7201,37.7707 48.5,38.5 Z"></path></g><g><path style="opacity:1" fill="#515151" d="M 66.5,58.5 C 65.2092,56.6846 63.3759,55.6846 61,55.5C 59.3189,55.6083 58.1522,56.2749 57.5,57.5C 55.9855,56.3199 54.3188,55.3199 52.5,54.5C 53.3333,54.1667 54.1667,53.8333 55,53.5C 60.0267,53.8491 65.1934,54.1825 70.5,54.5C 70.8333,57.5 69.5,58.8333 66.5,58.5 Z"></path></g><g><path style="opacity:1" fill="#252525" d="M 66.5,58.5 C 64.0336,59.6341 61.367,59.8007 58.5,59C 57.944,58.6174 57.6107,58.1174 57.5,57.5C 58.1522,56.2749 59.3189,55.6083 61,55.5C 63.3759,55.6846 65.2092,56.6846 66.5,58.5 Z"></path></g><g><path style="opacity:1" fill="#5b5b5b" d="M 53.5,83.5 C 51.9519,83.1788 51.2852,82.1788 51.5,80.5C 50.1667,80.5 48.8333,80.5 47.5,80.5C 49.826,76.4923 52.826,75.8256 56.5,78.5C 53.5641,79.3943 52.5641,81.061 53.5,83.5 Z"></path></g><g><path style="opacity:1" fill="#1f1f1f" d="M 47.5,80.5 C 48.8333,80.5 50.1667,80.5 51.5,80.5C 51.2852,82.1788 51.9519,83.1788 53.5,83.5C 55.3841,83.7118 56.7174,84.7118 57.5,86.5C 55.242,87.37 52.9087,87.37 50.5,86.5C 48.3115,86.5939 46.3115,87.2606 44.5,88.5C 43.759,85.2937 44.759,82.6271 47.5,80.5 Z"></path></g></svg>