<svg width="100%" height="100%" viewBox="0 0 795 1040" version="1.1" xmlns="http://www.w3.org/2000/svg" xmlns:xlink="http://www.w3.org/1999/xlink" xml:space="preserve" xmlns:serif="http://www.serif.com/" style="fill-rule:evenodd;clip-rule:evenodd;stroke-miterlimit:1.5;">
<title>Sad Mac</title>
<style>path { fill: var(--bulma-body-color, black); }</style>
<g transform="matrix(1,0,0,1,-1288.23,-376.925)">
        <g transform="matrix(1,0,0,1,14.5134,50.7968)">
            <g>
                <g>
                    <g>
                        <g transform="matrix(0.30782,0,0,0.320563,1319.13,978.684)">
                            <path d="M1352.05,356.201L1976.24,356.201" style="fill:none;stroke:black;stroke-width:101.83px;"/>
                        </g>
                        <g transform="matrix(0.102842,0,0,0.320563,1242.94,1010.61)">
                            <path d="M1352.05,356.201L1976.24,356.201" style="fill:none;stroke:black;stroke-width:134.42px;"/>
                        </g>
                        <g transform="matrix(0.821429,0,0,1.02738,304.227,85.6187)">
                            <path d="M1352.05,356.201L1976.24,356.201" style="fill:none;stroke:black;stroke-width:34.4px;"/>
                        </g>
                        <g transform="matrix(4.40335e-17,0.719122,-0.899424,5.50738e-17,1718.72,-504.225)">
                            <path d="M1352.05,356.201L1976.24,356.201" style="fill:none;stroke:black;stroke-width:39.3px;"/>
                        </g>
                        <g transform="matrix(4.40335e-17,0.719122,-0.899424,5.50738e-17,2264.79,-504.225)">
                            <path d="M1352.05,356.201L1976.24,356.201" style="fill:none;stroke:black;stroke-width:39.3px;"/>
                        </g>
                        <g transform="matrix(0.821429,0,0,1.02738,304.115,567.463)">
                            <path d="M1352.05,356.201L1976.24,356.201" style="fill:none;stroke:black;stroke-width:34.4px;"/>
                        </g>
                    </g>
                </g>
                <g>
                    <g transform="matrix(2.86132,0,0,0.889996,-1329.02,275.101)">
                        <path d="M1171.46,1080L1171.46,1225.04L925.317,1225.04L925.317,1080L1171.46,1080ZM1160.28,1115.95L936.501,1115.95C936.501,1115.95 936.501,1189.08 936.501,1189.08L1160.28,1189.08L1160.28,1115.95Z" style="fill:none;stroke:black;stroke-width:550.19px;"/>
                    </g>
                    <g transform="matrix(0.051365,0,0,0.0642435,1249.05,364.041)">
                        <path d="M1352.05,356.201L1976.24,356.201" style="fill:none;stroke:black;stroke-width:550.19px;"/>
                    </g>
                    <g transform="matrix(0.051365,0,0,0.0642435,1922.39,364.041)">
                        <path d="M1352.05,356.201L1976.24,356.201" style="fill:none;stroke:black;stroke-width:550.19px;"/>
                    </g>
                    <g transform="matrix(8.17035e-17,1.33432,-1.66887,1.02189e-16,1897.01,-1400.64)">
                        <path d="M1352.05,356.201L1976.24,356.201" style="fill:none;stroke:black;stroke-width:21.18px;"/>
                    </g>
                    <g transform="matrix(8.17035e-17,1.33432,-1.66887,1.02189e-16,2634.29,-1400.64)">
                        <path d="M1352.05,356.201L1976.24,356.201" style="fill:none;stroke:black;stroke-width:21.18px;"/>
                    </g>
                    <g transform="matrix(1.02738,0,0,1.02738,-38.5065,-10.9824)">
                        <path d="M1352.05,356.201L1976.24,356.201" style="fill:none;stroke:black;stroke-width:31.15px;"/>
                    </g>
                </g>
                <g>
                    <g transform="matrix(0.10273,0,0,0.128487,1468.18,694.123)">
                        <path d="M1352.05,356.201L1976.24,356.201" style="fill:none;stroke:black;stroke-width:275.09px;"/>
                    </g>
                    <g transform="matrix(0.051365,0,0,0.0642435,1505.52,685.054)">
                        <path d="M1352.05,356.201L1976.24,356.201" style="fill:none;stroke:black;stroke-width:550.19px;"/>
                    </g>
                    <g transform="matrix(0.051365,0,0,0.0642435,1601.64,685.054)">
                        <path d="M1352.05,356.201L1976.24,356.201" style="fill:none;stroke:black;stroke-width:550.19px;"/>
                    </g>
                    <g transform="matrix(0.10273,0,0,0.128487,1596.25,789.981)">
                        <path d="M1352.05,356.201L1976.24,356.201" style="fill:none;stroke:black;stroke-width:275.09px;"/>
                    </g>
                    <g transform="matrix(0.051365,0,0,0.0642435,1473.46,812.865)">
                        <path d="M1352.05,356.201L1976.24,356.201" style="fill:none;stroke:black;stroke-width:550.19px;"/>
                    </g>
                    <g transform="matrix(0.051365,0,0,0.0642435,1729.83,845.561)">
                        <path d="M1352.05,356.201L1976.24,356.201" style="fill:none;stroke:black;stroke-width:550.19px;"/>
                    </g>
                    <g transform="matrix(0.256301,0,0,0.320563,1228.48,689.868)">
                        <path d="M1352.05,356.201L1976.24,356.201" style="fill:none;stroke:black;stroke-width:110.26px;"/>
                    </g>
                    <g transform="matrix(0.051365,0,0,0.0642435,1409.56,556.5)">
                        <path d="M1352.05,356.201L1976.24,356.201" style="fill:none;stroke:black;stroke-width:550.19px;"/>
                    </g>
                    <g transform="matrix(0.051365,0,0,0.0642435,1473.46,556.5)">
                        <path d="M1352.05,356.201L1976.24,356.201" style="fill:none;stroke:black;stroke-width:550.19px;"/>
                    </g>
                    <g transform="matrix(0.051365,0,0,0.0642435,1409.56,621.149)">
                        <path d="M1352.05,356.201L1976.24,356.201" style="fill:none;stroke:black;stroke-width:550.19px;"/>
                    </g>
                    <g transform="matrix(0.051365,0,0,0.0642435,1441.62,589.196)">
                        <path d="M1352.05,356.201L1976.24,356.201" style="fill:none;stroke:black;stroke-width:550.19px;"/>
                    </g>
                    <g transform="matrix(0.051365,0,0,0.0642435,1473.46,621.149)">
                        <path d="M1352.05,356.201L1976.24,356.201" style="fill:none;stroke:black;stroke-width:550.19px;"/>
                    </g>
                    <g transform="matrix(0.051365,0,0,0.0642435,1665.92,556.872)">
                        <path d="M1352.05,356.201L1976.24,356.201" style="fill:none;stroke:black;stroke-width:550.19px;"/>
                    </g>
                    <g transform="matrix(0.051365,0,0,0.0642435,1729.83,556.872)">
                        <path d="M1352.05,356.201L1976.24,356.201" style="fill:none;stroke:black;stroke-width:550.19px;"/>
                    </g>
                    <g transform="matrix(0.051365,0,0,0.0642435,1665.92,621.52)">
                        <path d="M1352.05,356.201L1976.24,356.201" style="fill:none;stroke:black;stroke-width:550.19px;"/>
                    </g>
                    <g transform="matrix(0.051365,0,0,0.0642435,1697.98,589.568)">
                        <path d="M1352.05,356.201L1976.24,356.201" style="fill:none;stroke:black;stroke-width:550.19px;"/>
                    </g>
                    <g transform="matrix(0.051365,0,0,0.0642435,1729.83,621.52)">
                        <path d="M1352.05,356.201L1976.24,356.201" style="fill:none;stroke:black;stroke-width:550.19px;"/>
                    </g>
                </g>
            </g>
        </g>
    </g>
</svg>
