<svg fill="currentColor"
  xmlns="http://www.w3.org/2000/svg"
  viewBox="0 0 25 32"
  width="100%"
  height="100%"
  shape-rendering="crispEdges">
<title>Sad Mac</title>
<rect x="2" y="0" width="1" height="1" />
<rect x="3" y="0" width="1" height="1" />
<rect x="4" y="0" width="1" height="1" />
<rect x="5" y="0" width="1" height="1" />
<rect x="6" y="0" width="1" height="1" />
<rect x="7" y="0" width="1" height="1" />
<rect x="8" y="0" width="1" height="1" />
<rect x="9" y="0" width="1" height="1" />
<rect x="10" y="0" width="1" height="1" />
<rect x="11" y="0" width="1" height="1" />
<rect x="12" y="0" width="1" height="1" />
<rect x="13" y="0" width="1" height="1" />
<rect x="14" y="0" width="1" height="1" />
<rect x="15" y="0" width="1" height="1" />
<rect x="16" y="0" width="1" height="1" />
<rect x="17" y="0" width="1" height="1" />
<rect x="18" y="0" width="1" height="1" />
<rect x="19" y="0" width="1" height="1" />
<rect x="20" y="0" width="1" height="1" />
<rect x="21" y="0" width="1" height="1" />
<rect x="22" y="0" width="1" height="1" />
<rect x="1" y="1" width="1" height="1" />
<rect x="23" y="1" width="1" height="1" />
<rect x="0" y="2" width="1" height="1" />
<rect x="24" y="2" width="1" height="1" />
<rect x="0" y="3" width="1" height="1" />
<rect x="4" y="3" width="1" height="1" />
<rect x="5" y="3" width="1" height="1" />
<rect x="6" y="3" width="1" height="1" />
<rect x="7" y="3" width="1" height="1" />
<rect x="8" y="3" width="1" height="1" />
<rect x="9" y="3" width="1" height="1" />
<rect x="10" y="3" width="1" height="1" />
<rect x="11" y="3" width="1" height="1" />
<rect x="12" y="3" width="1" height="1" />
<rect x="13" y="3" width="1" height="1" />
<rect x="14" y="3" width="1" height="1" />
<rect x="15" y="3" width="1" height="1" />
<rect x="16" y="3" width="1" height="1" />
<rect x="17" y="3" width="1" height="1" />
<rect x="18" y="3" width="1" height="1" />
<rect x="19" y="3" width="1" height="1" />
<rect x="20" y="3" width="1" height="1" />
<rect x="24" y="3" width="1" height="1" />
<rect x="0" y="4" width="1" height="1" />
<rect x="3" y="4" width="1" height="1" />
<rect x="21" y="4" width="1" height="1" />
<rect x="24" y="4" width="1" height="1" />
<rect x="0" y="5" width="1" height="1" />
<rect x="3" y="5" width="1" height="1" />
<rect x="21" y="5" width="1" height="1" />
<rect x="24" y="5" width="1" height="1" />
<rect x="0" y="6" width="1" height="1" />
<rect x="3" y="6" width="1" height="1" />
<rect x="7" y="6" width="1" height="1" />
<rect x="9" y="6" width="1" height="1" />
<rect x="15" y="6" width="1" height="1" />
<rect x="17" y="6" width="1" height="1" />
<rect x="21" y="6" width="1" height="1" />
<rect x="24" y="6" width="1" height="1" />
<rect x="0" y="7" width="1" height="1" />
<rect x="3" y="7" width="1" height="1" />
<rect x="8" y="7" width="1" height="1" />
<rect x="16" y="7" width="1" height="1" />
<rect x="21" y="7" width="1" height="1" />
<rect x="24" y="7" width="1" height="1" />
<rect x="0" y="8" width="1" height="1" />
<rect x="3" y="8" width="1" height="1" />
<rect x="7" y="8" width="1" height="1" />
<rect x="9" y="8" width="1" height="1" />
<rect x="15" y="8" width="1" height="1" />
<rect x="17" y="8" width="1" height="1" />
<rect x="21" y="8" width="1" height="1" />
<rect x="24" y="8" width="1" height="1" />
<rect x="0" y="9" width="1" height="1" />
<rect x="3" y="9" width="1" height="1" />
<rect x="21" y="9" width="1" height="1" />
<rect x="24" y="9" width="1" height="1" />
<rect x="0" y="10" width="1" height="1" />
<rect x="3" y="10" width="1" height="1" />
<rect x="10" y="10" width="1" height="1" />
<rect x="13" y="10" width="1" height="1" />
<rect x="21" y="10" width="1" height="1" />
<rect x="24" y="10" width="1" height="1" />
<rect x="0" y="11" width="1" height="1" />
<rect x="3" y="11" width="1" height="1" />
<rect x="11" y="11" width="1" height="1" />
<rect x="12" y="11" width="1" height="1" />
<rect x="21" y="11" width="1" height="1" />
<rect x="24" y="11" width="1" height="1" />
<rect x="0" y="12" width="1" height="1" />
<rect x="3" y="12" width="1" height="1" />
<rect x="21" y="12" width="1" height="1" />
<rect x="24" y="12" width="1" height="1" />
<rect x="0" y="13" width="1" height="1" />
<rect x="3" y="13" width="1" height="1" />
<rect x="10" y="13" width="1" height="1" />
<rect x="11" y="13" width="1" height="1" />
<rect x="12" y="13" width="1" height="1" />
<rect x="13" y="13" width="1" height="1" />
<rect x="14" y="13" width="1" height="1" />
<rect x="21" y="13" width="1" height="1" />
<rect x="24" y="13" width="1" height="1" />
<rect x="0" y="14" width="1" height="1" />
<rect x="3" y="14" width="1" height="1" />
<rect x="9" y="14" width="1" height="1" />
<rect x="15" y="14" width="1" height="1" />
<rect x="16" y="14" width="1" height="1" />
<rect x="21" y="14" width="1" height="1" />
<rect x="24" y="14" width="1" height="1" />
<rect x="0" y="15" width="1" height="1" />
<rect x="3" y="15" width="1" height="1" />
<rect x="17" y="15" width="1" height="1" />
<rect x="21" y="15" width="1" height="1" />
<rect x="24" y="15" width="1" height="1" />
<rect x="0" y="16" width="1" height="1" />
<rect x="3" y="16" width="1" height="1" />
<rect x="21" y="16" width="1" height="1" />
<rect x="24" y="16" width="1" height="1" />
<rect x="0" y="17" width="1" height="1" />
<rect x="4" y="17" width="1" height="1" />
<rect x="5" y="17" width="1" height="1" />
<rect x="6" y="17" width="1" height="1" />
<rect x="7" y="17" width="1" height="1" />
<rect x="8" y="17" width="1" height="1" />
<rect x="9" y="17" width="1" height="1" />
<rect x="10" y="17" width="1" height="1" />
<rect x="11" y="17" width="1" height="1" />
<rect x="12" y="17" width="1" height="1" />
<rect x="13" y="17" width="1" height="1" />
<rect x="14" y="17" width="1" height="1" />
<rect x="15" y="17" width="1" height="1" />
<rect x="16" y="17" width="1" height="1" />
<rect x="17" y="17" width="1" height="1" />
<rect x="18" y="17" width="1" height="1" />
<rect x="19" y="17" width="1" height="1" />
<rect x="20" y="17" width="1" height="1" />
<rect x="24" y="17" width="1" height="1" />
<rect x="0" y="18" width="1" height="1" />
<rect x="24" y="18" width="1" height="1" />
<rect x="0" y="19" width="1" height="1" />
<rect x="24" y="19" width="1" height="1" />
<rect x="0" y="20" width="1" height="1" />
<rect x="24" y="20" width="1" height="1" />
<rect x="0" y="21" width="1" height="1" />
<rect x="24" y="21" width="1" height="1" />
<rect x="0" y="22" width="1" height="1" />
<rect x="24" y="22" width="1" height="1" />
<rect x="0" y="23" width="1" height="1" />
<rect x="15" y="23" width="1" height="1" />
<rect x="16" y="23" width="1" height="1" />
<rect x="17" y="23" width="1" height="1" />
<rect x="18" y="23" width="1" height="1" />
<rect x="19" y="23" width="1" height="1" />
<rect x="20" y="23" width="1" height="1" />
<rect x="24" y="23" width="1" height="1" />
<rect x="0" y="24" width="1" height="1" />
<rect x="3" y="24" width="1" height="1" />
<rect x="4" y="24" width="1" height="1" />
<rect x="24" y="24" width="1" height="1" />
<rect x="0" y="25" width="1" height="1" />
<rect x="24" y="25" width="1" height="1" />
<rect x="0" y="26" width="1" height="1" />
<rect x="24" y="26" width="1" height="1" />
<rect x="0" y="27" width="1" height="1" />
<rect x="24" y="27" width="1" height="1" />
<rect x="1" y="28" width="1" height="1" />
<rect x="2" y="28" width="1" height="1" />
<rect x="3" y="28" width="1" height="1" />
<rect x="4" y="28" width="1" height="1" />
<rect x="5" y="28" width="1" height="1" />
<rect x="6" y="28" width="1" height="1" />
<rect x="7" y="28" width="1" height="1" />
<rect x="8" y="28" width="1" height="1" />
<rect x="9" y="28" width="1" height="1" />
<rect x="10" y="28" width="1" height="1" />
<rect x="11" y="28" width="1" height="1" />
<rect x="12" y="28" width="1" height="1" />
<rect x="13" y="28" width="1" height="1" />
<rect x="14" y="28" width="1" height="1" />
<rect x="15" y="28" width="1" height="1" />
<rect x="16" y="28" width="1" height="1" />
<rect x="17" y="28" width="1" height="1" />
<rect x="18" y="28" width="1" height="1" />
<rect x="19" y="28" width="1" height="1" />
<rect x="20" y="28" width="1" height="1" />
<rect x="21" y="28" width="1" height="1" />
<rect x="22" y="28" width="1" height="1" />
<rect x="23" y="28" width="1" height="1" />
<rect x="1" y="29" width="1" height="1" />
<rect x="23" y="29" width="1" height="1" />
<rect x="1" y="30" width="1" height="1" />
<rect x="23" y="30" width="1" height="1" />
<rect x="1" y="31" width="1" height="1" />
<rect x="2" y="31" width="1" height="1" />
<rect x="3" y="31" width="1" height="1" />
<rect x="4" y="31" width="1" height="1" />
<rect x="5" y="31" width="1" height="1" />
<rect x="6" y="31" width="1" height="1" />
<rect x="7" y="31" width="1" height="1" />
<rect x="8" y="31" width="1" height="1" />
<rect x="9" y="31" width="1" height="1" />
<rect x="10" y="31" width="1" height="1" />
<rect x="11" y="31" width="1" height="1" />
<rect x="12" y="31" width="1" height="1" />
<rect x="13" y="31" width="1" height="1" />
<rect x="14" y="31" width="1" height="1" />
<rect x="15" y="31" width="1" height="1" />
<rect x="16" y="31" width="1" height="1" />
<rect x="17" y="31" width="1" height="1" />
<rect x="18" y="31" width="1" height="1" />
<rect x="19" y="31" width="1" height="1" />
<rect x="20" y="31" width="1" height="1" />
<rect x="21" y="31" width="1" height="1" />
<rect x="22" y="31" width="1" height="1" />
<rect x="23" y="31" width="1" height="1" />
</svg>
